<svg xmlns="http://www.w3.org/2000/svg" width="129" height="40" viewBox="0 0 129 40">
  <g id="Group_173" data-name="Group 173" transform="translate(0)">
    <g id="microsoft-teams">
      <g id="Group_172" data-name="Group 172">
        <path id="Path_33" data-name="Path 33" d="M34.243,15.276a3.617,3.617,0,1,0-.778-1.154,3.7,3.7,0,0,0,.778,1.154Zm-1.06,3.36V29.545H35a10.345,10.345,0,0,0,1.86-.177,5.8,5.8,0,0,0,1.762-.615,3.929,3.929,0,0,0,1.313-1.159,3,3,0,0,0,.518-1.809V18.637Zm-5.892-4.573A3.517,3.517,0,0,0,28.7,13.78a3.626,3.626,0,0,0,0-6.68,3.519,3.519,0,0,0-1.408-.284,3.471,3.471,0,0,0-1.4.284c-.33.141-.433.324-.887.545v5.589c.455.223.557.4.887.545a3.467,3.467,0,0,0,1.4.284ZM25,32.43c.455.1.618.175.941.219a7.732,7.732,0,0,0,1.067.078,8.059,8.059,0,0,0,1.639-.177,4.843,4.843,0,0,0,1.554-.606,3.569,3.569,0,0,0,1.159-1.15,3.307,3.307,0,0,0,.457-1.808V16.364H25ZM0,35.909,23.636,40V0L0,4.091Z" fill="#fff"/>
      </g>
      <path id="Path_34" data-name="Path 34" d="M385.509,722.4l-10.908.664v2.516l4.091-.165v11.666l2.727.16V725.308l4.091-.182Z" transform="translate(-368.236 -710.127)" fill="#361ea0"/>
    </g>
    <text id="Railcomm" transform="translate(54 26)" fill="#fff" font-size="16" font-family="Quicksand-Regular, Quicksand"><tspan x="0" y="0">Railcomm</tspan></text>
  </g>
</svg>
